<?xml version="1.0" standalone="no"?>
<!DOCTYPE svg PUBLIC "-//W3C//DTD SVG 20010904//EN"
 "http://www.w3.org/TR/2001/REC-SVG-20010904/DTD/svg10.dtd">
<svg version="1.0" xmlns="http://www.w3.org/2000/svg"
 width="512.000000pt" height="512.000000pt" viewBox="0 0 512.000000 512.000000"
 preserveAspectRatio="xMidYMid meet">

<g transform="translate(0.000000,512.000000) scale(0.100000,-0.100000)"
fill="#000000" stroke="none">
<path d="M337 4946 c-212 -58 -230 -359 -27 -444 98 -41 227 0 283 91 l30 47
511 0 511 0 155 -206 c85 -114 157 -211 158 -216 2 -4 -11 -14 -29 -20 -122
-42 -334 -165 -465 -269 l-62 -49 -77 91 c-43 50 -89 95 -102 100 -13 5 -82 9
-153 9 l-128 0 -26 45 c-47 79 -149 123 -244 104 -222 -45 -252 -359 -42 -447
98 -41 227 0 283 91 l30 47 113 0 112 0 61 -71 c34 -38 61 -74 61 -78 0 -4
-14 -20 -31 -37 -71 -67 -200 -256 -268 -391 l-31 -63 -169 0 -169 0 -26 45
c-47 79 -149 123 -244 104 -222 -45 -252 -359 -42 -447 98 -41 227 0 283 91
l30 47 133 0 c148 0 144 2 120 -68 -25 -71 -56 -244 -65 -369 -15 -193 15
-474 65 -615 24 -70 28 -68 -120 -68 l-134 0 -26 45 c-47 79 -149 123 -244
104 -215 -43 -254 -344 -56 -439 105 -51 237 -14 297 82 l30 48 168 0 169 0
31 -62 c68 -136 197 -325 268 -392 17 -17 31 -33 31 -37 0 -4 -27 -40 -61 -78
l-61 -71 -113 0 -113 0 -26 45 c-47 79 -149 123 -244 104 -215 -43 -254 -344
-56 -439 105 -51 237 -14 297 82 l30 48 128 0 c70 0 139 4 152 9 13 5 59 50
102 100 l77 91 62 -49 c131 -104 343 -227 465 -269 18 -6 31 -16 29 -20 -1 -5
-73 -102 -158 -216 l-155 -206 -511 0 -512 0 -26 45 c-47 79 -149 123 -244
104 -215 -43 -254 -344 -56 -439 105 -51 237 -14 297 83 l30 47 528 0 c312 0
538 4 553 10 16 6 97 104 221 270 156 207 200 260 214 255 48 -15 182 -35 295
-45 166 -13 432 9 547 45 14 5 58 -48 214 -255 124 -166 205 -264 221 -270 15
-6 241 -10 553 -10 l528 0 30 -47 c60 -97 192 -134 297 -83 154 74 175 293 38
397 -107 81 -271 51 -338 -62 l-26 -45 -512 0 -511 0 -155 206 c-85 114 -157
211 -158 216 -2 4 11 14 29 20 122 42 334 165 465 269 l62 49 77 -91 c43 -50
89 -95 102 -100 13 -5 82 -9 152 -9 l128 0 30 -48 c60 -96 192 -133 297 -82
154 74 175 293 38 397 -107 81 -271 51 -338 -62 l-26 -45 -113 0 -113 0 -54
63 c-30 34 -58 68 -62 75 -5 8 13 35 49 75 70 77 183 244 236 348 l39 79 169
0 168 0 30 -47 c56 -91 185 -132 283 -91 165 69 194 297 52 405 -107 81 -271
51 -338 -62 l-26 -45 -134 0 c-149 0 -143 -4 -118 75 52 170 77 408 63 606 -8
123 -39 298 -65 371 -24 70 -28 68 120 68 l133 0 30 -47 c56 -91 185 -132 283
-91 165 69 194 297 52 405 -107 81 -271 51 -338 -62 l-26 -45 -169 0 -169 0
-31 63 c-68 135 -197 324 -268 391 -17 17 -31 33 -31 37 0 4 27 40 61 78 l61
71 112 0 113 0 30 -47 c56 -91 185 -132 283 -91 165 69 194 297 52 405 -107
81 -271 51 -338 -62 l-26 -45 -128 0 c-71 0 -140 -4 -153 -9 -13 -5 -59 -50
-102 -100 l-77 -91 -62 49 c-131 104 -343 227 -465 269 -18 6 -31 16 -29 20 1
5 73 102 158 216 l155 206 511 0 511 0 30 -47 c56 -91 185 -132 283 -91 165
69 194 297 52 405 -107 81 -271 51 -338 -62 l-26 -45 -528 0 c-313 0 -539 -4
-554 -10 -16 -6 -97 -104 -221 -270 -156 -207 -200 -260 -214 -255 -115 36
-381 58 -547 45 -113 -10 -247 -30 -295 -45 -14 -5 -58 48 -214 255 -124 166
-205 264 -221 270 -15 6 -241 10 -553 10 l-528 0 -30 48 c-51 82 -160 124
-256 98z m120 -168 c51 -48 15 -138 -56 -138 -47 0 -81 32 -81 79 0 72 84 109
137 59z m4320 0 c51 -48 15 -138 -56 -138 -47 0 -81 32 -81 79 0 72 84 109
137 59z m-1872 -652 c316 -73 556 -206 786 -435 229 -230 362 -470 434 -786
33 -144 45 -402 26 -549 -57 -425 -284 -816 -622 -1071 -201 -151 -394 -239
-651 -297 -91 -20 -129 -23 -323 -23 -205 1 -228 3 -339 29 -327 77 -597 231
-821 468 -200 212 -332 459 -401 754 -27 112 -28 132 -28 344 0 212 1 232 28
345 36 152 65 234 131 366 220 444 635 764 1112 859 145 29 142 28 353 26 172
-3 209 -6 315 -30z m-2128 -68 c51 -48 15 -138 -56 -138 -47 0 -81 32 -81 79
0 72 84 109 137 59z m3680 0 c51 -48 15 -138 -56 -138 -47 0 -81 32 -81 79 0
72 84 109 137 59z m-4000 -800 c51 -48 15 -138 -56 -138 -47 0 -81 32 -81 79
0 72 84 109 137 59z m4320 0 c51 -48 15 -138 -56 -138 -47 0 -81 32 -81 79 0
72 84 109 137 59z m-4320 -1280 c51 -48 15 -138 -56 -138 -47 0 -81 32 -81 79
0 72 84 109 137 59z m4320 0 c51 -48 15 -138 -56 -138 -47 0 -81 32 -81 79 0
72 84 109 137 59z m-4000 -800 c51 -48 15 -138 -56 -138 -47 0 -81 32 -81 79
0 72 84 109 137 59z m3680 0 c51 -48 15 -138 -56 -138 -47 0 -81 32 -81 79 0
72 84 109 137 59z m-4000 -720 c51 -48 15 -138 -56 -138 -47 0 -81 32 -81 79
0 72 84 109 137 59z m4320 0 c51 -48 15 -138 -56 -138 -47 0 -81 32 -81 79 0
72 84 109 137 59z"/>
<path d="M2439 3990 c-245 -23 -462 -99 -672 -236 -124 -81 -317 -270 -395
-389 -284 -428 -325 -953 -111 -1413 127 -275 384 -538 659 -677 326 -164 739
-194 1088 -78 355 117 668 388 839 727 50 99 110 285 129 401 21 129 21 341 0
470 -19 116 -79 302 -129 402 -132 261 -359 492 -624 635 -220 119 -531 181
-784 158z m342 -166 c499 -85 900 -461 1027 -963 25 -97 27 -122 27 -301 0
-178 -3 -204 -27 -300 -76 -299 -236 -542 -477 -723 -118 -89 -226 -146 -362
-191 -141 -47 -257 -66 -409 -66 -350 0 -657 127 -905 375 -194 194 -314 425
-361 695 -22 130 -15 379 15 500 128 514 516 879 1036 975 101 19 323 18 436
-1z"/>
<path d="M2540 3592 c-8 -3 -129 -81 -268 -174 -172 -115 -256 -177 -262 -193
-11 -28 0 -64 24 -85 37 -30 68 -16 299 138 l227 152 227 -152 c231 -154 262
-168 299 -138 24 21 35 57 24 85 -6 16 -90 78 -262 193 -140 93 -262 172 -273
175 -11 3 -27 3 -35 -1z"/>
<path d="M1810 2947 c-49 -25 -50 -37 -48 -399 3 -332 3 -338 25 -359 29 -29
77 -29 106 0 21 20 22 32 25 189 l4 167 91 -180 c101 -198 120 -219 174 -193
52 25 53 35 51 400 -3 332 -3 338 -25 359 -29 29 -77 29 -106 0 -20 -20 -22
-33 -27 -187 l-5 -165 -85 171 c-47 94 -92 177 -100 184 -24 22 -53 26 -80 13z"/>
<path d="M2450 2947 c-49 -25 -50 -37 -48 -399 3 -332 3 -338 25 -359 29 -29
77 -29 106 0 20 20 22 33 25 155 l4 134 93 4 c108 3 138 21 138 78 0 57 -30
75 -138 78 l-95 4 0 78 0 78 135 4 c123 3 136 5 156 25 29 29 29 77 0 106 -20
21 -31 22 -199 25 -129 2 -184 -1 -202 -11z"/>
<path d="M3090 2947 c-38 -19 -54 -60 -38 -94 17 -35 52 -53 105 -53 l42 0 3
-295 c3 -288 3 -295 25 -316 29 -29 77 -29 106 0 22 21 22 28 25 315 l3 294
55 4 c38 3 62 11 76 26 28 28 28 77 -1 105 -20 21 -31 22 -199 25 -130 2 -184
-1 -202 -11z"/>
<path d="M1495 2630 c-77 -30 -57 -143 25 -143 87 0 100 124 15 146 -11 3 -29
2 -40 -3z"/>
<path d="M3575 2630 c-77 -30 -57 -143 25 -143 41 0 73 32 73 73 0 50 -53 88
-98 70z"/>
<path d="M2050 1987 c-35 -17 -53 -58 -40 -91 12 -33 513 -369 550 -369 36 0
538 336 550 368 11 28 0 64 -24 85 -37 30 -68 16 -299 -138 l-227 -152 -223
149 c-122 81 -231 151 -242 154 -11 4 -31 1 -45 -6z"/>
</g>
</svg>
